<?xml version="1.0" encoding="utf-8"?>
<!-- Generator: Adobe Illustrator 16.0.0, SVG Export Plug-In . SVG Version: 6.00 Build 0)  -->
<!DOCTYPE svg PUBLIC "-//W3C//DTD SVG 1.1//EN" "http://www.w3.org/Graphics/SVG/1.1/DTD/svg11.dtd">
<svg version="1.1" id="Layer_1" xmlns="http://www.w3.org/2000/svg" xmlns:xlink="http://www.w3.org/1999/xlink" x="0px" y="0px"
	 width="112.938px" height="187.584px" viewBox="0 0 112.938 187.584" enable-background="new 0 0 112.938 187.584"
	 xml:space="preserve">
<g>
	<path d="M35.67,15.815c0-3.529,0.1-5.89,0.302-7.085c0.215-1.195,0.543-2.161,0.987-2.897c0.711-1.395,1.852-2.638,3.422-3.729
		C41.925,1,43.851,0.434,46.16,0.406c2.335,0.028,4.282,0.596,5.839,1.705c1.543,1.095,2.657,2.343,3.342,3.743
		c0.497,0.735,0.838,1.698,1.026,2.891c0.174,1.192,0.262,3.549,0.262,7.07c0,3.466-0.087,5.809-0.262,7.029
		c-0.188,1.22-0.53,2.197-1.027,2.932c-0.685,1.4-1.799,2.634-3.342,3.702c-1.557,1.109-3.503,1.691-5.838,1.747
		c-2.309-0.056-4.234-0.638-5.778-1.747c-1.571-1.067-2.711-2.301-3.423-3.702c-0.215-0.458-0.409-0.895-0.583-1.31
		c-0.161-0.43-0.296-0.971-0.403-1.622C35.771,21.625,35.67,19.282,35.67,15.815z M40.117,15.815c0,2.987,0.107,5.009,0.322,6.064
		c0.188,1.056,0.572,1.911,1.15,2.563c0.471,0.625,1.089,1.132,1.856,1.521c0.753,0.458,1.655,0.688,2.704,0.688
		c1.062,0,1.983-0.229,2.764-0.688c0.739-0.389,1.332-0.896,1.775-1.521c0.578-0.653,0.975-1.507,1.19-2.563
		c0.202-1.056,0.302-3.077,0.302-6.064c0-2.987-0.101-5.022-0.302-6.105c-0.215-1.028-0.612-1.869-1.19-2.522
		c-0.444-0.625-1.036-1.146-1.775-1.563c-0.781-0.403-1.702-0.618-2.764-0.646c-1.049,0.028-1.951,0.243-2.704,0.646
		c-0.767,0.417-1.385,0.938-1.856,1.563c-0.578,0.653-0.962,1.494-1.15,2.521C40.224,10.793,40.117,12.829,40.117,15.815z"/>
	<path d="M65.113,0.656h11.382c2.888,0.028,5.057,0.776,6.507,2.246c1.464,1.484,2.196,3.445,2.196,5.885
		c0.027,1.248-0.262,2.44-0.866,3.577c-0.309,0.541-0.752,1.054-1.329,1.539c-0.577,0.513-1.289,0.978-2.135,1.394v0.083
		c1.603,0.43,2.814,1.296,3.636,2.6c0.768,1.345,1.151,2.807,1.151,4.388c-0.027,2.62-0.819,4.693-2.379,6.218
		c-1.546,1.595-3.474,2.392-5.785,2.392H65.113V0.656z M69.559,4.729v8.717h6.431c1.626,0,2.822-0.439,3.588-1.317
		c0.779-0.809,1.17-1.826,1.17-3.052c0-1.226-0.391-2.265-1.17-3.115c-0.766-0.794-1.962-1.206-3.588-1.233H69.559z M69.559,17.519
		v9.133h6.864c1.655-0.027,2.867-0.493,3.634-1.397c0.768-0.89,1.151-1.946,1.151-3.169c0-1.251-0.384-2.322-1.151-3.211
		c-0.767-0.875-1.979-1.327-3.634-1.355H69.559z"/>
	<path d="M93.919,23.63c2.339,1.987,5.12,2.994,8.346,3.021c3.817-0.055,5.752-1.463,5.807-4.225
		c0.027-2.261-1.249-3.621-3.828-4.079c-1.183-0.167-2.479-0.354-3.889-0.562c-2.525-0.43-4.446-1.394-5.762-2.893
		c-1.357-1.541-2.035-3.414-2.035-5.62c0-2.65,0.852-4.788,2.556-6.411c1.65-1.61,3.991-2.428,7.023-2.456
		c3.649,0.083,6.822,1.127,9.52,3.132l-2.48,3.775c-2.203-1.5-4.629-2.278-7.275-2.334c-1.371,0-2.513,0.354-3.427,1.062
		c-0.953,0.736-1.444,1.832-1.471,3.289c0,0.875,0.329,1.665,0.987,2.373c0.658,0.722,1.712,1.221,3.163,1.499
		c0.806,0.139,1.907,0.298,3.304,0.479c2.754,0.389,4.788,1.409,6.104,3.06c1.303,1.624,1.956,3.511,1.956,5.661
		c-0.148,5.8-3.583,8.742-10.306,8.825c-4.348,0-8.084-1.379-11.211-4.139L93.919,23.63z"/>
	<path d="M36.668,52.656H55.43v4.323H41.115v8.676h12.219v4.072H41.115v8.925H55.43v4.324H36.668V52.656z"/>
	<path d="M63.762,52.656h11.475c2.446,0,4.443,0.666,5.989,1.996c1.86,1.511,2.831,3.667,2.912,6.468
		c-0.055,4.117-1.944,6.918-5.671,8.401l6.797,13.455h-5.283l-6.078-12.958h-5.694v12.958h-4.446V52.656z M68.208,65.946h6.744
		c1.67-0.027,2.922-0.528,3.757-1.501c0.821-0.904,1.231-2.016,1.231-3.336c-0.026-1.584-0.519-2.731-1.474-3.44
		c-0.754-0.625-1.845-0.938-3.271-0.938h-6.987V65.946z"/>
	<path d="M89.317,52.656h4.706l6.658,23.096h0.08l6.679-23.096h4.706l-9.694,30.32h-3.46L89.317,52.656z"/>
	<path d="M51.718,128.195H40.58l-2.255,6.781h-4.713l10.675-30.321h3.726l10.675,30.321h-4.693L51.718,128.195z M50.449,124.123
		l-4.25-13.265h-0.081l-4.25,13.265H50.449z"/>
	<path d="M69.881,108.73h-8.05v-4.074h20.55v4.074h-8.054v26.247h-4.446V108.73z"/>
	<path d="M90.595,119.816c0-3.528,0.101-5.891,0.302-7.085c0.215-1.194,0.544-2.16,0.986-2.896c0.712-1.395,1.853-2.638,3.423-3.729
		c1.543-1.104,3.47-1.671,5.778-1.698c2.336,0.027,4.281,0.596,5.839,1.705c1.543,1.096,2.657,2.343,3.342,3.743
		c0.496,0.735,0.839,1.698,1.027,2.891c0.174,1.192,0.262,3.549,0.262,7.07c0,3.466-0.088,5.809-0.262,7.03
		c-0.189,1.219-0.531,2.197-1.027,2.932c-0.686,1.4-1.799,2.635-3.343,3.701c-1.557,1.109-3.503,1.691-5.838,1.748
		c-2.309-0.057-4.235-0.639-5.778-1.748c-1.57-1.066-2.712-2.301-3.423-3.701c-0.215-0.457-0.409-0.895-0.584-1.311
		c-0.161-0.43-0.295-0.971-0.402-1.621C90.696,125.625,90.595,123.282,90.595,119.816z M95.042,119.816
		c0,2.987,0.107,5.008,0.322,6.065c0.188,1.055,0.572,1.91,1.15,2.562c0.471,0.625,1.089,1.133,1.856,1.521
		c0.753,0.459,1.654,0.688,2.703,0.688c1.062,0,1.984-0.229,2.765-0.688c0.739-0.389,1.331-0.896,1.775-1.521
		c0.578-0.652,0.975-1.508,1.19-2.562c0.201-1.057,0.303-3.078,0.303-6.065c0-2.986-0.102-5.022-0.303-6.105
		c-0.216-1.028-0.612-1.869-1.19-2.521c-0.444-0.626-1.036-1.146-1.775-1.563c-0.78-0.402-1.702-0.618-2.765-0.646
		c-1.049,0.027-1.95,0.243-2.703,0.646c-0.768,0.417-1.386,0.938-1.856,1.563c-0.578,0.652-0.962,1.493-1.15,2.521
		C95.149,114.793,95.042,116.83,95.042,119.816z M102.133,96.962h5.531l-5.854,6.195h-3.459L102.133,96.962z"/>
	<path d="M36.668,156.656h11.475c2.447,0,4.443,0.666,5.989,1.996c1.861,1.512,2.831,3.668,2.912,6.467
		c-0.054,4.12-1.944,6.918-5.671,8.403l6.797,13.455h-5.283l-6.078-12.959h-5.695v12.959h-4.446V156.656z M41.115,169.948h6.745
		c1.669-0.029,2.921-0.529,3.756-1.502c0.821-0.904,1.231-2.016,1.231-3.336c-0.027-1.584-0.518-2.732-1.474-3.441
		c-0.754-0.625-1.844-0.938-3.271-0.938h-6.987V169.948z"/>
	<path d="M71.288,156.656h4.446v30.321h-4.446V156.656z"/>
	<path d="M89.916,171.817c0-3.529,0.101-5.891,0.302-7.086c0.215-1.193,0.544-2.16,0.986-2.896c0.712-1.395,1.853-2.637,3.423-3.729
		c1.543-1.105,3.47-1.672,5.778-1.699c2.336,0.027,4.281,0.596,5.839,1.705c1.543,1.096,2.657,2.344,3.342,3.744
		c0.496,0.734,0.839,1.697,1.026,2.891c0.174,1.192,0.262,3.549,0.262,7.071c0,3.465-0.088,5.809-0.262,7.029
		c-0.188,1.219-0.53,2.197-1.026,2.932c-0.686,1.4-1.799,2.635-3.343,3.701c-1.557,1.109-3.503,1.691-5.838,1.748
		c-2.309-0.057-4.235-0.639-5.778-1.748c-1.57-1.066-2.712-2.301-3.423-3.701c-0.215-0.457-0.409-0.895-0.584-1.311
		c-0.161-0.43-0.295-0.971-0.402-1.621C90.016,177.625,89.916,175.282,89.916,171.817z M94.362,171.817
		c0,2.986,0.107,5.008,0.322,6.064c0.188,1.055,0.572,1.91,1.15,2.562c0.471,0.625,1.089,1.133,1.856,1.521
		c0.753,0.459,1.654,0.688,2.703,0.688c1.062,0,1.984-0.229,2.765-0.688c0.739-0.389,1.331-0.896,1.775-1.521
		c0.578-0.652,0.975-1.508,1.19-2.562c0.201-1.057,0.303-3.078,0.303-6.064s-0.102-5.023-0.303-6.105
		c-0.216-1.03-0.612-1.87-1.19-2.522c-0.444-0.627-1.036-1.146-1.775-1.564c-0.78-0.402-1.702-0.617-2.765-0.645
		c-1.049,0.027-1.95,0.242-2.703,0.645c-0.768,0.418-1.386,0.938-1.856,1.564c-0.578,0.652-0.962,1.492-1.15,2.522
		C94.469,166.793,94.362,168.831,94.362,171.817z"/>
</g>
<g>
	<g>
		<g>
			<path fill="#009B49" d="M12.975,186.928h-3.94v-23.952l-8.43-13.844l8.43-14.811v-26.683l-8.44-14.173l8.44-13.928V54.324
				L0.579,40.697l8.456-13.939V0.677H13l8.673,13.283l-8.475,13.96v25.211l8.457,13.623l-8.457,13.948v25.786l8.427,14.139
				l-8.427,14.798v26.383l8.551,14.03L12.975,186.928z M13.198,169.811v10.117l3.482-4.402L13.198,169.811z M5.438,149.062
				l3.597,5.908v-12.227L5.438,149.062z M13.198,114.63v12.375l3.604-6.329L13.198,114.63z M5.45,93.485L9.035,99.5V87.57
				L5.45,93.485z M13.198,61.032v11.64l3.57-5.889L13.198,61.032z M5.464,40.669l3.57,5.755v-11.64L5.464,40.669z M13.198,8.595
				v11.299l3.56-5.86L13.198,8.595z"/>
		</g>
	</g>
</g>
</svg>
